<svg id="Layer_1" data-name="Layer 1" xmlns="http://www.w3.org/2000/svg" viewBox="0 0 143.64 99.72"><defs><style>.cls-1{fill:#183b65;}.cls-2{fill:#001f4a;}.cls-3{fill:#fff;stroke:#001d5f;stroke-width:3px;}.cls-3,.cls-4,.cls-5,.cls-6{stroke-miterlimit:10;}.cls-4,.cls-5{fill:none;stroke:#000;}.cls-4{stroke-width:1.01px;}.cls-5{stroke-width:2px;}.cls-6{fill:#9fa9b2;stroke:#fff;stroke-linecap:round;stroke-width:0.75px;}.cls-7{font-size:14px;fill:#7f2700;font-family:MyriadPro-Regular, Myriad Pro;}.cls-8{letter-spacing:-0.01em;}.cls-9{letter-spacing:0.01em;}.cls-10{letter-spacing:0em;}.cls-11{font-size:12px;fill:#553200;font-family:BlackadderITC-Regular, Blackadder ITC;}</style></defs><title>logo</title><path class="cls-1" d="M735.57,367.86" transform="translate(-260.43 -256.16)"/><path class="cls-2" d="M318.38,289.94c2.25,2.21,1.28,4.14,3.08,5.14,2.17,1.21,4.61-1.09,9.65-2.14a27.45,27.45,0,0,1,8.34-.43c7-3.49,12.6-6.51,16.26-8.54,9.27-5.17,11.11-6.7,19.74-11.18,4.15-2.14,11.85-6,11.85-6-1.07,1.77,2.12-3.55,3.21-5.31,2.6-4.14,3.19-4.58,2.94-5-1-1.59-11.06,2.68-16.6,5.42-1.1.55-3.25,1.7-7.54,4-6,3.23-7.06,3.87-9.22,4.28-3.48.67-3.48.67-8.94-.41a74,74,0,0,1-8.18-2.59c-5.22-1.8-7.19-2.64-9.86-2-.6.15-3.14.75-3.31,2-.2,1.44,2.82,2.54,8.36,6.31s5.88,5,5.84,5.64c-.12,1.93-3,3.24-5.42,4.34a19.48,19.48,0,0,1-8.78,2.14c-7.08-.11-9.56-4.21-14.05-2.57-1.93.71-3.72,2.3-3.51,3.43C312.51,288,315.8,287.38,318.38,289.94Z" transform="translate(-260.43 -256.16)"/><path class="cls-1" d="M273.61,353.37" transform="translate(-260.43 -256.16)"/><ellipse class="cls-3" cx="33" cy="60.91" rx="31.5" ry="31"/><line class="cls-4" x1="33.5" y1="93.41" x2="33.5" y2="31.41"/><line class="cls-5" x1="65" y1="61.91" x2="2" y2="61.91"/><path class="cls-5" d="M277.9,317.65a32.78,32.78,0,0,1,1.85-13.57,35.07,35.07,0,0,1,14.19-17.29" transform="translate(-260.43 -256.16)"/><path class="cls-5" d="M293.6,347.37a51.6,51.6,0,0,1-9.66-11.77,50.46,50.46,0,0,1-6.38-17.29" transform="translate(-260.43 -256.16)"/><path class="cls-5" d="M308.73,318.31a33.9,33.9,0,0,0-2.67-15.86,35.12,35.12,0,0,0-12.46-15" transform="translate(-260.43 -256.16)"/><path class="cls-4" d="M293.6,347.37a32.82,32.82,0,0,0,11.17-11.72,31.9,31.9,0,0,0,4-17.34" transform="translate(-260.43 -256.16)"/><path class="cls-5" d="M267.2,301.35l13.42.38L321,302.88" transform="translate(-260.43 -256.16)"/><line class="cls-5" x1="7" y1="78.91" x2="59" y2="79.03"/><path class="cls-6" d="M403.86,258.65q-13.41,7.11-27.16,14.91-25.62,14.54-48.76,29.35c-4.46,3.11-10.67,7.65-17.25,13.25-4.57,3.9-8.21,7.36-9.33,8.44-1.89,1.8-3.48,3.39-4.72,4.66l-4.59,8.65a12.39,12.39,0,0,0,2.5,9.66,10.77,10.77,0,0,0,6.71,3.68h0c7.76,1.81,12.67,2.67,12.67,2.67l-4.91-.86c9.51,1.68,10.35,1.81,10.35,1.81a63.68,63.68,0,0,0,18.1,0c-3.59-.59-7.46-1.36-11.54-2.4-4.44-1.12-8.52-2.4-12.22-3.72-5.68-4.19-6.92-8-7.23-10.25-1.76-12.91,20-27.41,35-37.48l8.23-5.41,20.48-13.47h0Z" transform="translate(-260.43 -256.16)"/><text class="cls-7" transform="translate(71.56 73.24) scale(1.02 1)"><tspan class="cls-8">M</tspan><tspan x="11.12" y="0">T&amp;</tspan><tspan class="cls-9" x="26.54" y="0">R</tspan><tspan class="cls-10" x="34.15" y="0">A</tspan></text><text class="cls-11" transform="translate(64.78 83.92) scale(1.02 1)">get you covered</text></svg>